<svg width="27" height="27" viewBox="0 0 27 27" fill="none" xmlns="http://www.w3.org/2000/svg">
<path d="M13.5 1.12501C10.2526 1.09201 7.12505 2.34969 4.80457 4.62165C2.4841 6.8936 1.16062 9.99393 1.125 13.2413C1.13751 15.8076 1.96306 18.3039 3.48307 20.3717C5.00308 22.4395 7.13933 23.9723 9.585 24.75C10.2037 24.8625 10.4287 24.4913 10.4287 24.165C10.4287 23.8388 10.4287 23.1188 10.4287 22.1063C6.98625 22.8375 6.255 20.4863 6.255 20.4863C6.02583 19.7481 5.53864 19.1172 4.8825 18.7088C3.7575 17.9663 4.9725 17.9775 4.9725 17.9775C5.36136 18.0295 5.7334 18.1688 6.06072 18.3851C6.38805 18.6014 6.66216 18.889 6.8625 19.2263C7.21162 19.8316 7.78447 20.2758 8.45776 20.463C9.13105 20.6503 9.85094 20.5657 10.4625 20.2275C10.5254 19.6114 10.8044 19.0375 11.25 18.6075C8.505 18.3038 5.625 17.2688 5.625 12.6225C5.60045 11.4105 6.04827 10.2365 6.87375 9.34876C6.49781 8.30821 6.5422 7.16211 6.9975 6.15376C6.9975 6.15376 8.04375 5.82751 10.3725 7.39126C12.3996 6.85108 14.5329 6.85108 16.56 7.39126C18.9225 5.82751 19.935 6.15376 19.935 6.15376C20.3903 7.16211 20.4347 8.30821 20.0587 9.34876C20.9034 10.2202 21.3755 11.3864 21.375 12.6C21.375 17.2575 18.4725 18.2813 15.75 18.585C16.0481 18.8744 16.2784 19.2263 16.4243 19.6154C16.5702 20.0044 16.628 20.4209 16.5937 20.835V24.1538C16.5937 24.1538 16.8187 24.8625 17.4375 24.7388C19.8762 23.9562 22.0053 22.423 23.5206 20.3582C25.0359 18.2933 25.8599 15.8024 25.875 13.2413C25.8394 9.99393 24.5159 6.8936 22.1954 4.62165C19.8749 2.34969 16.7474 1.09201 13.5 1.12501Z" fill="#fff"/>
</svg>
